<?xml version="1.0" standalone="no"?><!DOCTYPE svg PUBLIC "-//W3C//DTD SVG 1.1//EN" "http://www.w3.org/Graphics/SVG/1.1/DTD/svg11.dtd"><svg t="1691675617887" class="icon" viewBox="0 0 1024 1024" version="1.1" xmlns="http://www.w3.org/2000/svg" p-id="5233" xmlns:xlink="http://www.w3.org/1999/xlink" width="64" height="64"><path d="M513.664 1012.906667c-90.218667 0-173.013333-28.16-226.325333-70.186667-27.072 7.530667-61.696 19.669333-83.562667 34.709333-18.688 12.885333-16.362667 26.026667-12.992 31.317334 14.805333 23.274667 253.866667 14.869333 322.88 7.616v-3.456z" fill="#FAAD08" p-id="5234"></path><path d="M497.386667 1012.906667c90.218667 0 173.013333-28.16 226.346666-70.186667 27.050667 7.530667 61.674667 19.669333 83.541334 34.709333 18.688 12.885333 16.362667 26.026667 13.013333 31.317334-14.805333 23.274667-253.866667 14.869333-322.901333 7.616v-3.456z" fill="#FAAD08" p-id="5235"></path><path d="M497.92 469.674667c148.48-0.981333 267.477333-29.013333 307.797333-39.765334 9.6-2.56 14.741333-7.168 14.741334-7.168 0.042667-1.322667 0.618667-23.573333 0.618666-35.050666C821.077333 194.304 727.509333 0 497.386667 0 267.264 0 173.696 194.304 173.696 387.690667c0 11.477333 0.576 33.728 0.618667 35.050666 0 0 4.181333 4.309333 11.84 6.4 37.226667 10.090667 158.464 39.530667 310.677333 40.533334h1.109333zM906.602667 633.130667c-9.130667-29.354667-21.610667-63.573333-34.24-96.448 0 0-7.253333-0.896-10.922667 0.149333-113.344 32.853333-250.709333 53.824-355.392 52.565333h-1.066667c-104.106667 1.237333-240.533333-19.456-353.493333-52.010666C147.2 536.149333 138.666667 536.682667 138.666667 536.682667c-12.629333 32.853333-25.109333 67.093333-34.24 96.448-43.562667 139.989333-29.44 197.909333-18.709334 199.210666 23.061333 2.773333 89.792-105.386667 89.792-105.386666 0 109.909333 99.392 278.656 326.976 280.213333h6.058667c227.605333-1.557333 326.976-170.304 326.976-280.192 0 0 66.730667 108.16 89.813333 105.365333 10.730667-1.28 24.832-59.221333-18.730666-199.210666" fill="#000000" p-id="5236"></path><path d="M427.306667 292.309333c-31.36 1.408-58.218667-33.877333-59.904-78.72-1.706667-44.885333 22.357333-82.389333 53.76-83.797333 31.36-1.365333 58.176 33.898667 59.882666 78.762667 1.706667 44.864-22.336 82.346667-53.717333 83.754666m232.576-78.72c-1.685333 44.842667-28.522667 80.106667-59.925333 78.72-31.36-1.386667-55.445333-38.890667-53.717334-83.754666 1.706667-44.864 28.522667-80.128 59.882667-78.741334 31.402667 1.386667 55.466667 38.890667 53.76 83.776" fill="#FFFFFF" p-id="5237"></path><path d="M708.16 350.506667c-8.234667-19.818667-91.221333-41.898667-193.941333-41.898667h-1.109334c-102.741333 0-185.728 22.08-193.962666 41.898667a6.954667 6.954667 0 0 0 0.533333 6.613333c6.933333 11.008 99.093333 65.301333 193.429333 65.301333h1.109334c94.336 0 186.453333-54.293333 193.408-65.28a7.146667 7.146667 0 0 0 0.533333-6.634666" fill="#FAAD08" p-id="5238"></path><path d="M464.746667 224.192c1.408 17.877333-8.32 33.749333-21.696 35.477333-13.397333 1.749333-25.386667-11.328-26.816-29.226666-1.386667-17.877333 8.32-33.770667 21.674666-35.498667 13.418667-1.728 25.429333 11.370667 26.837334 29.226667m82.261333 8.96c2.837333-4.650667 22.314667-29.013333 62.592-20.138667 10.581333 2.325333 15.466667 5.76 16.490667 7.104 1.536 1.984 1.941333 4.821333 0.405333 8.64-3.072 7.573333-9.386667 7.36-12.885333 5.888-2.261333-0.96-30.314667-17.877333-56.170667 7.381333-1.770667 1.728-4.949333 2.325333-7.957333 0.256-3.029333-2.048-4.266667-6.250667-2.474667-9.152" fill="#000000" p-id="5239"></path><path d="M506.026667 593.429333h-1.066667c-71.530667 0.853333-158.293333-8.448-242.282667-24.661333-7.189333 40.789333-11.52 92.096-7.786666 153.258667 9.408 154.602667 103.082667 251.776 247.68 253.205333h5.888c144.618667-1.429333 238.293333-98.602667 247.722666-253.205333 3.712-61.184-0.64-112.469333-7.808-153.28-84.010667 16.234667-170.773333 25.536-242.346666 24.682666" fill="#FFFFFF" p-id="5240"></path><path d="M302.293333 585.002667v154.709333s73.088 14.293333 146.346667 4.394667v-142.698667a1387.562667 1387.562667 0 0 1-146.346667-16.405333" fill="#EB1C26" p-id="5241"></path><path d="M825.386667 422.421333s-137.28 45.44-319.317334 46.741334h-1.066666c-181.76-1.28-318.848-46.592-319.317334-46.72l-45.973333 120.32c114.986667 36.373333 257.493333 59.818667 365.269333 58.453333h1.066667c107.797333 1.365333 250.282667-22.08 365.312-58.453333l-45.994667-120.32z" fill="#EB1C26" p-id="5242"></path></svg>